<?xml version="1.0" encoding="UTF-8"?>
<svg width="1290" height="2796" viewBox="0 0 1290 2796" xmlns="http://www.w3.org/2000/svg">
  <defs>
    <linearGradient id="bgGradient" x1="0%" y1="0%" x2="0%" y2="100%">
      <stop offset="0%" style="stop-color:#0d0615"/>
      <stop offset="50%" style="stop-color:#1a0b2e"/>
      <stop offset="100%" style="stop-color:#2d1b4e"/>
    </linearGradient>
    <linearGradient id="moonGradient" x1="0%" y1="0%" x2="100%" y2="100%">
      <stop offset="0%" style="stop-color:#2d1b4e"/>
      <stop offset="100%" style="stop-color:#b794f6"/>
    </linearGradient>
    <linearGradient id="cardGradient" x1="0%" y1="0%" x2="0%" y2="100%">
      <stop offset="0%" style="stop-color:rgba(45,27,78,0.6)"/>
      <stop offset="100%" style="stop-color:rgba(26,11,46,0.8)"/>
    </linearGradient>
  </defs>

  <!-- Background -->
  <rect width="1290" height="2796" fill="url(#bgGradient)"/>

  <!-- Decorative stars -->
  <circle cx="100" cy="300" r="2" fill="#b794f6" opacity="0.3"/>
  <circle cx="1150" cy="500" r="2.5" fill="#b794f6" opacity="0.35"/>
  <circle cx="180" cy="2200" r="3" fill="#ffd700" opacity="0.3"/>

  <!-- Status bar -->
  <text x="80" y="80" font-family="SF Pro Display, -apple-system, sans-serif" font-size="34" fill="#ffffff">9:41</text>
  <rect x="1050" y="55" width="160" height="40" rx="20" fill="#ffffff" opacity="0.3"/>

  <!-- Header -->
  <text x="80" y="200" font-family="Poppins, sans-serif" font-size="28" fill="#b794f6">←</text>
  <text x="645" y="200" font-family="Poppins, sans-serif" font-size="42" font-weight="300" letter-spacing="4" fill="#ffffff" text-anchor="middle">Calendrier Lunaire</text>

  <!-- Month Navigation -->
  <text x="200" y="320" font-family="Poppins, sans-serif" font-size="36" fill="rgba(255,255,255,0.5)">‹</text>
  <text x="645" y="320" font-family="Poppins, sans-serif" font-size="48" font-weight="400" fill="#ffffff" text-anchor="middle">Février 2026</text>
  <text x="1090" y="320" font-family="Poppins, sans-serif" font-size="36" fill="rgba(255,255,255,0.5)">›</text>

  <!-- Days of week -->
  <g font-family="Poppins, sans-serif" font-size="28" fill="#b794f6" text-anchor="middle">
    <text x="145" y="420">Lun</text>
    <text x="305" y="420">Mar</text>
    <text x="465" y="420">Mer</text>
    <text x="625" y="420">Jeu</text>
    <text x="785" y="420">Ven</text>
    <text x="945" y="420">Sam</text>
    <text x="1105" y="420">Dim</text>
  </g>

  <!-- Calendar Grid -->
  <!-- Week 1 -->
  <g font-family="Poppins, sans-serif" text-anchor="middle">
    <!-- Empty days -->
    <text x="145" y="520" font-size="36" fill="rgba(255,255,255,0.3)"></text>
    <text x="305" y="520" font-size="36" fill="rgba(255,255,255,0.3)"></text>
    <text x="465" y="520" font-size="36" fill="rgba(255,255,255,0.3)"></text>
    <text x="625" y="520" font-size="36" fill="rgba(255,255,255,0.3)"></text>
    <text x="785" y="520" font-size="36" fill="rgba(255,255,255,0.3)"></text>
    <text x="945" y="520" font-size="36" fill="rgba(255,255,255,0.3)"></text>
    <text x="1105" y="520" font-size="36" fill="#ffffff">1</text>
    <circle cx="1105" cy="560" r="12" fill="url(#moonGradient)" opacity="0.3"/>
  </g>

  <!-- Week 2 -->
  <g font-family="Poppins, sans-serif" text-anchor="middle">
    <text x="145" y="660" font-size="36" fill="#ffffff">2</text>
    <circle cx="145" cy="700" r="14" fill="url(#moonGradient)" opacity="0.4"/>

    <text x="305" y="660" font-size="36" fill="#ffffff">3</text>
    <circle cx="305" cy="700" r="16" fill="url(#moonGradient)" opacity="0.5"/>

    <text x="465" y="660" font-size="36" fill="#ffffff">4</text>
    <circle cx="465" cy="700" r="18" fill="url(#moonGradient)" opacity="0.6"/>

    <text x="625" y="660" font-size="36" fill="#ffffff">5</text>
    <circle cx="625" cy="700" r="20" fill="url(#moonGradient)" opacity="0.7"/>

    <text x="785" y="660" font-size="36" fill="#ffffff">6</text>
    <circle cx="785" cy="700" r="22" fill="url(#moonGradient)" opacity="0.8"/>

    <text x="945" y="660" font-size="36" fill="#ffffff">7</text>
    <circle cx="945" cy="700" r="24" fill="url(#moonGradient)" opacity="0.9"/>

    <text x="1105" y="660" font-size="36" fill="#ffffff">8</text>
    <circle cx="1105" cy="700" r="26" fill="url(#moonGradient)"/>
  </g>

  <!-- Week 3 -->
  <g font-family="Poppins, sans-serif" text-anchor="middle">
    <text x="145" y="800" font-size="36" fill="#ffffff">9</text>
    <circle cx="145" cy="840" r="24" fill="url(#moonGradient)" opacity="0.9"/>

    <text x="305" y="800" font-size="36" fill="#ffffff">10</text>
    <circle cx="305" cy="840" r="22" fill="url(#moonGradient)" opacity="0.8"/>

    <text x="465" y="800" font-size="36" fill="#ffffff">11</text>
    <circle cx="465" cy="840" r="20" fill="url(#moonGradient)" opacity="0.7"/>

    <!-- Full Moon Day - highlighted -->
    <circle cx="625" cy="815" r="55" fill="rgba(183,148,246,0.2)" stroke="#b794f6" stroke-width="2"/>
    <text x="625" y="800" font-size="36" fill="#ffd700" font-weight="500">12</text>
    <circle cx="625" cy="850" r="20" fill="#b794f6"/>
    <text x="625" y="920" font-size="20" fill="#ffd700">Pleine</text>

    <text x="785" y="800" font-size="36" fill="#ffffff">13</text>
    <circle cx="785" cy="840" r="20" fill="url(#moonGradient)" opacity="0.95"/>
    <circle cx="795" cy="835" r="15" fill="#1a0b2e"/>

    <text x="945" y="800" font-size="36" fill="#ffffff">14</text>
    <circle cx="945" cy="840" r="20" fill="url(#moonGradient)" opacity="0.9"/>
    <circle cx="958" cy="833" r="16" fill="#1a0b2e"/>

    <text x="1105" y="800" font-size="36" fill="#ffffff">15</text>
    <circle cx="1105" cy="840" r="20" fill="url(#moonGradient)" opacity="0.85"/>
    <circle cx="1120" cy="832" r="17" fill="#1a0b2e"/>
  </g>

  <!-- Week 4 -->
  <g font-family="Poppins, sans-serif" text-anchor="middle">
    <text x="145" y="980" font-size="36" fill="#ffffff">16</text>
    <circle cx="145" cy="1020" r="20" fill="url(#moonGradient)" opacity="0.8"/>
    <circle cx="162" cy="1012" r="17" fill="#1a0b2e"/>

    <text x="305" y="980" font-size="36" fill="#ffffff">17</text>
    <circle cx="305" cy="1020" r="20" fill="url(#moonGradient)" opacity="0.7"/>
    <circle cx="323" cy="1012" r="17" fill="#1a0b2e"/>

    <text x="465" y="980" font-size="36" fill="#ffffff">18</text>
    <circle cx="465" cy="1020" r="20" fill="url(#moonGradient)" opacity="0.6"/>
    <circle cx="483" cy="1012" r="17" fill="#1a0b2e"/>

    <!-- Last Quarter -->
    <circle cx="625" cy="995" r="55" fill="rgba(183,148,246,0.15)" stroke="rgba(183,148,246,0.5)" stroke-width="1"/>
    <text x="625" y="980" font-size="36" fill="#ffffff">19</text>
    <circle cx="625" cy="1030" r="18" fill="url(#moonGradient)" opacity="0.5"/>
    <circle cx="640" cy="1025" r="16" fill="#1a0b2e"/>
    <text x="625" y="1100" font-size="20" fill="#b794f6">Dernier Q.</text>

    <text x="785" y="980" font-size="36" fill="#ffffff">20</text>
    <circle cx="785" cy="1020" r="16" fill="url(#moonGradient)" opacity="0.4"/>
    <circle cx="798" cy="1015" r="14" fill="#1a0b2e"/>

    <text x="945" y="980" font-size="36" fill="#ffffff">21</text>
    <circle cx="945" cy="1020" r="14" fill="url(#moonGradient)" opacity="0.3"/>
    <circle cx="956" cy="1016" r="12" fill="#1a0b2e"/>

    <text x="1105" y="980" font-size="36" fill="#ffffff">22</text>
    <circle cx="1105" cy="1020" r="12" fill="url(#moonGradient)" opacity="0.2"/>
    <circle cx="1114" cy="1017" r="10" fill="#1a0b2e"/>
  </g>

  <!-- Week 5 -->
  <g font-family="Poppins, sans-serif" text-anchor="middle">
    <text x="145" y="1160" font-size="36" fill="#ffffff">23</text>
    <circle cx="145" cy="1200" r="10" fill="url(#moonGradient)" opacity="0.15"/>

    <text x="305" y="1160" font-size="36" fill="#ffffff">24</text>
    <circle cx="305" cy="1200" r="8" fill="url(#moonGradient)" opacity="0.1"/>

    <text x="465" y="1160" font-size="36" fill="#ffffff">25</text>
    <circle cx="465" cy="1200" r="6" fill="url(#moonGradient)" opacity="0.08"/>

    <!-- New Moon -->
    <circle cx="625" cy="1175" r="55" fill="rgba(183,148,246,0.15)" stroke="rgba(183,148,246,0.5)" stroke-width="1"/>
    <text x="625" y="1160" font-size="36" fill="#ffffff">26</text>
    <circle cx="625" cy="1210" r="18" fill="none" stroke="#b794f6" stroke-width="2"/>
    <text x="625" y="1280" font-size="20" fill="#b794f6">Nouvelle</text>

    <text x="785" y="1160" font-size="36" fill="#ffffff">27</text>
    <circle cx="785" cy="1200" r="10" fill="url(#moonGradient)" opacity="0.15"/>
    <circle cx="792" cy="1197" r="8" fill="#1a0b2e"/>

    <text x="945" y="1160" font-size="36" fill="#ffffff">28</text>
    <circle cx="945" cy="1200" r="12" fill="url(#moonGradient)" opacity="0.2"/>
    <circle cx="954" cy="1196" r="10" fill="#1a0b2e"/>

    <text x="1105" y="1160" font-size="36" fill="rgba(255,255,255,0.3)"></text>
  </g>

  <!-- Legend -->
  <rect x="80" y="1380" width="1130" height="180" rx="25" fill="url(#cardGradient)" stroke="rgba(183,148,246,0.2)" stroke-width="1"/>
  <text x="130" y="1440" font-family="Poppins, sans-serif" font-size="28" fill="#b794f6">Légende</text>

  <circle cx="180" cy="1510" r="18" fill="#b794f6"/>
  <text x="220" y="1520" font-family="Poppins, sans-serif" font-size="26" fill="#ffffff">Pleine Lune</text>

  <circle cx="480" cy="1510" r="18" fill="none" stroke="#b794f6" stroke-width="2"/>
  <text x="520" y="1520" font-family="Poppins, sans-serif" font-size="26" fill="#ffffff">Nouvelle Lune</text>

  <circle cx="800" cy="1510" r="18" fill="url(#moonGradient)" opacity="0.5"/>
  <circle cx="812" cy="1505" r="14" fill="#1a0b2e"/>
  <text x="840" y="1520" font-family="Poppins, sans-serif" font-size="26" fill="#ffffff">Quartiers</text>

  <!-- Selected Day Details -->
  <rect x="80" y="1620" width="1130" height="320" rx="30" fill="url(#cardGradient)" stroke="rgba(255,215,0,0.3)" stroke-width="2"/>
  <text x="130" y="1700" font-family="Poppins, sans-serif" font-size="28" fill="#ffd700">12 Février · Pleine Lune</text>
  <text x="130" y="1770" font-family="Poppins, sans-serif" font-size="38" font-weight="400" fill="#ffffff">Lune en Vierge ♍</text>
  <text x="130" y="1840" font-family="Poppins, sans-serif" font-size="28" fill="rgba(255,255,255,0.7)">Heure exacte: 14:27</text>
  <text x="130" y="1900" font-family="Poppins, sans-serif" font-size="26" fill="#b794f6">Moment idéal pour: Finaliser, récolter, célébrer</text>

  <!-- Bottom Navigation -->
  <rect x="0" y="2550" width="1290" height="246" fill="rgba(13,6,21,0.95)"/>
  <line x1="0" y1="2550" x2="1290" y2="2550" stroke="rgba(183,148,246,0.2)" stroke-width="1"/>

  <!-- Nav Icons - Calendar active -->
  <g transform="translate(215, 2620)">
    <circle cx="0" cy="0" r="25" fill="none" stroke="rgba(255,255,255,0.5)" stroke-width="3"/>
    <circle cx="10" cy="-7" r="20" fill="rgba(13,6,21,0.95)"/>
    <text x="0" y="70" font-family="Poppins, sans-serif" font-size="24" fill="rgba(255,255,255,0.5)" text-anchor="middle">Accueil</text>
  </g>

  <g transform="translate(430, 2620)">
    <rect x="-20" y="-25" width="40" height="35" rx="5" fill="none" stroke="#b794f6" stroke-width="3"/>
    <line x1="-20" y1="-15" x2="20" y2="-15" stroke="#b794f6" stroke-width="3"/>
    <text x="0" y="70" font-family="Poppins, sans-serif" font-size="24" fill="#b794f6" text-anchor="middle">Calendrier</text>
  </g>

  <g transform="translate(645, 2620)">
    <circle cx="0" cy="-5" r="20" fill="none" stroke="rgba(255,255,255,0.5)" stroke-width="3"/>
    <circle cx="0" cy="-5" r="5" fill="rgba(255,255,255,0.5)"/>
    <text x="0" y="70" font-family="Poppins, sans-serif" font-size="24" fill="rgba(255,255,255,0.5)" text-anchor="middle">Horoscope</text>
  </g>

  <g transform="translate(860, 2620)">
    <circle cx="0" cy="-5" r="8" fill="#ffd700" opacity="0.5"/>
    <line x1="0" y1="-5" x2="0" y2="15" stroke="rgba(255,255,255,0.5)" stroke-width="3"/>
    <text x="0" y="70" font-family="Poppins, sans-serif" font-size="24" fill="rgba(255,255,255,0.5)" text-anchor="middle">Rituels</text>
  </g>

  <g transform="translate(1075, 2620)">
    <circle cx="0" cy="-10" r="15" fill="none" stroke="rgba(255,255,255,0.5)" stroke-width="3"/>
    <ellipse cx="0" cy="20" rx="20" ry="12" fill="none" stroke="rgba(255,255,255,0.5)" stroke-width="3"/>
    <text x="0" y="70" font-family="Poppins, sans-serif" font-size="24" fill="rgba(255,255,255,0.5)" text-anchor="middle">Profil</text>
  </g>

  <rect x="495" y="2746" width="300" height="10" rx="5" fill="rgba(255,255,255,0.3)"/>
</svg>
